<svg width="70" height="75" xmlns="http://www.w3.org/2000/svg"><mask id="a" fill="#fff"><path fill-rule="evenodd" clip-rule="evenodd" d="M40.751 69.53C57.345 66.787 70 52.37 70 35 70 15.67 54.33 0 35 0S0 15.67 0 35c0 17.663 13.083 32.27 30.087 34.658l5.268 5.268 5.396-5.396z"/></mask><path fill-rule="evenodd" clip-rule="evenodd" d="M40.751 69.53C57.345 66.787 70 52.37 70 35 70 15.67 54.33 0 35 0S0 15.67 0 35c0 17.663 13.083 32.27 30.087 34.658l5.268 5.268 5.396-5.396z" fill="#fff"/><path d="M40.751 69.53l-6.687-40.451-12.992 2.148-9.312 9.311L40.75 69.53zm-10.664.128l28.991-28.992-9.701-9.7-13.587-1.91-5.703 40.602zm5.268 5.268L6.364 103.917l28.991 28.992 28.991-28.992-28.991-28.991zM29 35c0-3.018 2.187-5.446 5.064-5.921l13.374 80.902C83.502 104.019 111 72.761 111 35H29zm6 6a6 6 0 01-6-6h82c0-41.974-34.026-76-76-76v82zm6-6a6 6 0 01-6 6v-82C-6.974-41-41-6.974-41 35h82zm-5.21-5.944C38.745 29.471 41 31.938 41 35h-82c0 38.388 28.422 70.067 65.383 75.259l11.408-81.203zm28.556 16.879l-5.268-5.269L1.096 98.65l5.268 5.268 57.982-57.982zM11.76 40.538l-5.396 5.397 57.982 57.982 5.397-5.396L11.76 40.538z" fill="#E9862A" mask="url(#a)"/><path d="M51.27 35.812c-.64-.493-1.422-.83-2.133-1.207-.331-.172-1.08-.742-1.302-.939-.71-.627-1.134-1.29-1.977-1.776 0 0 .186-.132.369-.21.625-.272 1.328-.274 1.936-.56-.774-1.164-2.138-1.004-3.016-1.84.522.098 1.209.037 1.737-.012.974-.092 1.125-.438 1.583-1.125.131-.201.314-.399.472-.507.726-.485 2.594-.25 3.412-.25-.724-.39-1.853-1.116-2.686-1.193-3.221-.395-4.455.73-6.587-.344-.233-.091 1.035-.86 1.803-.888-.154-.104-1.11-.438-1.463-.431-.84.02-1.252.313-1.893.777 0-.616.039-1.064.641-1.453.368-.237 1.101-.409 1.376-.61.276-.199.558-.745.658-1.053.101-.307.085-1.09.085-1.09-.42.52-.737.917-1.425 1.05 0 0-2.745.524-3.404.757-.658.232-1.376.946-1.376.946s-.1-.125-.106-.431c-.008-.306 1.446-2.97 1.253-2.846-.19.123-1.078.386-1.607.57-.527.184-1.436.376-2.512.861-1.08.484-1.7 1.546-1.8 1.4-.1-.148-.346-.444-.39-.917-.047-.468.396-1.246.574-1.668.375-.907.537-2.003-.138-2.823-.246.19-2.622 2.697-3.107 3.538-.485.842-1.177 2.707-1.177 2.707l-.811 2.486s-.244-.214-.392-.437c-.145-.224-.07-1.1-.07-1.1.198-1.32.225-2.921-.977-3.84-.351-.272-.817-.239-.817-.239s.317.442.29 1.007c-.026.56-.183 1.145-.183 1.145l-.613 2.49c-.519 2.012-.312 3.174-.383 3.167-.932-.097-1.646-.929-1.835-1.792-.092-.425-.092-1.871-.092-1.871-1.04 1.544-1.618 2.542-1.3 4.417.222 1.295.944 2.655 1.598 3.791.337.586.58 1.635.58 1.635-.393-.397-.762-.738-1.374-.738-.896 0-2.16.788-2.939.317a3.878 3.878 0 00-.29-.132s.119.266.184.372c.836 1.352 1.893 1.112 3.162 1.724.686.323 1.074.563 1.556 1.191-.348-.176-1.274-.047-1.623.078-.576.206-1.058.651-1.686.86-.997.336-2.411.202-3.371-.249-.224-.105-.684-.386-.684-.386s.078.241.185.44c.105.195.843 1.231 1.079 1.469.851.854 1.747 1.206 2.895 1.347 1.954.089 3.65-.296 5.522.057.632.122 1.369.544 1.369.544-2 .596-1.245 1.723-3.715 2.186 1.688.763 2.996.497 4.611 0 1.119-.343 2.344-.358 2.344-.358-.73.34-1.677.977-2.105 1.657-1.046 1.653-2.244 2.561-4.19 2.793.73 1.15 3.008.647 4.004.358 1.174-.336 2.282-.911 3.147-1.786.172-.171.685-.703.87-.902.184-.198.476-.463.763-.661.292-.2.816-.427 1.094-.489.274-.07.937.024.937.024l-.055.038c-.054.043-.223.347-.356.545-.432.653-.609 1.538-.658 2.306-.028.41-.146 1.1-.146 1.1 1.041-.988 1.722-2.823 3.032-3.484.208-.106.46-.092.46-.092-.067 1.3-.896 2.406-.896 3.709 0 2.654 2.516 3.14 2.502 3.048-.096-.717-.065-2.028.106-2.73.313-1.245.974-2.487 1.358-3.748.186-.619.16-1.434.08-2.068.352-.047 1.26 1.642 1.21 1.855 0-.456.284-1.27.33-1.817.046-.567-.074-1.293-.238-1.839a3.375 3.375 0 011.608 1.165c.196.253.501.687.67.967.39.628.714 1.534 1.345 1.935.305.191.85.111 1.2.068-.312-.287-.586-.478-.765-.875-.346-.762-.42-2.04-.42-2.903 0-1.395-.306-2.798-1.016-4.001.36.042.69.136.987.357.155.117.54.427.752.305-.39-.36-.263-1.055-.462-1.535-.068-.16-.29-.661-.29-.661.287.045.583.275.844.395.595.276 1.41.353 2.053.383 1.062.06 2.142.048 3.109.532.106.052.567.436.567.436 0-.285.002-.578-.095-.846-.247-.7-.802-1.122-1.357-1.553z" fill="#fff"/><path d="M35.034 25.53c-4.843 0-8.784 3.956-8.784 8.82 0 4.864 3.94 8.82 8.784 8.82 4.843 0 8.784-3.956 8.784-8.82 0-4.864-3.94-8.82-8.784-8.82z" fill="#E9862A"/><path d="M37.878 41.596c.015-.01.033-.019.047-.026.011-.092-.026-.063.06-.16l.727-.374c.177-.242.247-.604.306-.893.007-.064.06-.34.029-.406-.02 0-.036 0-.055.003-.06.105-.065.132-.065.262l-.015.008c-.013-.178-.088-.099-.009-.313-.072.029-.412.142-.44.201 0 .088-.11.262-.207.213-.033 0-.033 0-.505.107-.023-.031-.03-.065-.074-.065-.242.065-.487.136-.734.182v.017c.068.027.14.05.21.077-.009.058-.016.117-.023.177-.222.047-.39-.052-.562-.189-.443.063-.89.098-1.34.12 0 .185.06 1.524-.006 1.756a7.87 7.87 0 002.966-.657c.084-.063.165-.13.244-.204-.114-.053-.355.263-.554.164zm-2.717-1.057c-.212-.004-.42-.008-.63-.01a10.973 10.973 0 01-3.655-.944c-.064.65.126 1.357.562 1.84a7.809 7.809 0 003.747.869c-.086-.222-.024-1.57-.024-1.755zm6.758-2.28a7.836 7.836 0 00.887-2.407c-.207.522-.48.985-.811 1.438-.01.337-.025.645-.075.968zm-.009-.861a9.66 9.66 0 01-1.557 1.458c.019.003.019.003.064-.023l.011.023c-.033.024-.033.024-.15.082-.004-.007-.004-.007.016-.038-.372.244-.756.47-1.148.678-.022.092-.027.16.043.222-.133.122-.164.64-.224.85-.022.064-.117.251-.117.314.226-.21.47-.512.748-.652.16.091.299-.153.373-.295.073-.06.25-.17.259-.26.074-.048.152-.098.23-.146 0 .055-.103.128-.06.186.382 0 .562-.5.706-.761.007.05 0 .115.07.068.016.025-.03.083 0 .112-.078.228-.52.59-.69.783-.6.552-1.199.946-1.904 1.368-.046.056-.131.12-.204.183a7.992 7.992 0 003.428-3.091c.098-.344.115-.711.12-1.066-.005 0-.008.002-.014.005zm-1.603 1.688c.01-.016.024-.028.039-.043.002.02-.025.037-.04.043zm.177-.096c-.024-.035-.024-.035-.044-.046.067-.003.067-.003.127.003a.598.598 0 00-.083.043zm.86-.52c-.165.144-.235.363-.428.488-.022-.042-.046-.083-.068-.123-.078-.016-.184.061-.255.096.084-.125.173-.247.259-.372.078-.041.62-.372.678-.355-.012.015-.012.015-.012.046.041.028.081.026.13.021a.718.718 0 01-.304.2zm-12.822.376l.053.081c-.02-.026-.035-.053-.053-.08zm12.562-9.611c-.727-.282-1.497-.343-2.268-.374.033.026.07.051.106.08-.074 0-.143-.08-.237-.08 0 .08.083.169.123.237-.063-.015-.126-.036-.19-.036a.06.06 0 00-.018.029c.019.029.019.029.065.067-.018.028-.022.035-.022.069a.685.685 0 00-.072-.009c-.046-.031-.423-.399-.43-.176.07.138.07.138.072.167-.027 0-.037 0-.057.02l-.194-.294h-.048c-.01.011-.01.011-.017.177-.027.025-.056.052-.085.075a1.557 1.557 0 01-.413-.295c-.6.033-1.198.125-1.794.212l-.026-.045.009-.014a18.247 18.247 0 011.809-.227c-.041-.122-.099-.22-.163-.333.079-.118.617-.16.756-.254 0-.025 0-.05.006-.074.05.064.1.125.15.19.013.058.017.115.062.156-.008.032-.032.032-.055.056 0 .012 0 .022.002.035.02.015.02.015.56.19.634.036 1.25.079 1.87.217.183.051.332.1.396.118a7.945 7.945 0 00-2.506-1.921.995.995 0 00-.278.045c.024.012.045.024.066.033-.066.004-.247-.04-.286.042-.046-.008-.09.021-.133.038.01.014.024.027.037.042-.019 0-.019 0-1.391-.58-.495-.082-.991-.164-1.483-.241.042-.002.087-.002.132-.002v-.17c-.035-.002-.07-.002-.106-.002-1.27 0-2.47.304-3.534.84.956.032 1.806.544 2.6 1.037.09-.004.172-.068.263-.039-.022.01-.04.018-.06.03v.043c.052.031.122.02.178.035-.169.149.105.355.187.302-.003-.061.011-.104-.051-.12.037-.085.053-.088.146-.125-.002-.019-.004-.033-.004-.05a1.794 1.794 0 01-.077-.042l.035-.066c.044-.001.077.003.108-.03.02.046.02.046.02.062l-.05.034c-.007.107.012.092.063.175-.017.015-.012.046-.003.063.025 0 .051 0 .077.002.011.018.02.03.041.04-.006 0-.01.003-.012.005-.042-.015-.068-.034-.114-.022a.572.572 0 01-.006.051c-.035 0-.048-.003-.072.02 0 .008.001.017.005.026-.038.007-.074.016-.109.021l.255.216c-.02.013-.04.024-.058.034-.092-.077-.34-.33-.424-.33 0 .032.007.042.023.074-.07.122-.229.05-.229.152l.074.05c-.026.01-.052.016-.052.05.477.095.477.095.492.106a.237.237 0 00-.029.05c-.212-.036-.356-.095-.555-.02l.015-.081c-.068-.01-.12 0-.182-.005-.008.009-.008.009-.017.046-.046-.017-.083-.03-.13-.03-.032.06.04.102.085.13l-.02.055c-.065-.034-.07-.07-.105-.124h-.045c-.006.009-.015.017-.02.03-.11-.055-.203-.145-.317-.071-.029-.137-.076-.03-.169-.03v-.038a.1.1 0 00-.024-.017c-.065.022-.065.022-.11.027.004-.034.004-.047-.03-.057-.007-.044-.007-.044-.017-.066-.15-.015-.3-.028-.447-.04-.01.019-.01.019-.028.033a.19.19 0 00-.027-.039c-1.121-.064-2.521-.167-3.549.393a7.923 7.923 0 00-1.737 6.766c.068.177.147.352.24.532 0-.024-.053-.21-.053-.238.349.786.668 1.588.973 2.389l.021.1a4.163 4.163 0 01-.183-.45c-.274-.492-.483-1-.678-1.529a9.534 9.534 0 01-.238-.448c.233.918.63 1.77 1.154 2.53l-.026-.044c.046-.013.031-.05.054-.056.033.064.228.276.118.308a8.027 8.027 0 002.595 2.28c-.392-.502-.463-1.138-.463-1.779a10.334 10.334 0 01-1.618-1.04c-.018-.002-.037-.009-.052-.01-.134-.212-.494-.611-.44-.866.117-.084.075-.084.052-.237.167.18.362.364.498.566l.115.505-.108.015a9.43 9.43 0 001.558.984c.037-.67.154-1.31.288-1.973-.039-.004-.078-.007-.116-.007-.094.109-.207.09-.33.048l-.029-.309c.233.032.233.032.277.03.16-.182.16-.137.133-.347.026-.031.049-.063.076-.091.033.053.065.107.101.16h.014l.07-.254c0-.273-.124-.242-.353-.316l-.14-.233c-.026-.211-.023-.324-.138-.488-.014-.21-.026-.418-.037-.625.037-.054.077-.107.118-.162-.006-.194-.015-.245.097-.403.159.148.414.056.592.17.134.385.556.647.605 1.062-.098.068-.098.068-.19.143-.082.234-.14.247.023.418-.044.052-.14.119-.14.19.087.051.166.326.21.425-.165 0-.09-.09-.225.077-.075-.047-.283-.212-.366-.212-.052.22-.095.274.023.464-.055.031-.109.064-.163.098-.158.717-.315 1.442-.332 2.175 1.364.66 2.783.942 4.286.96l-.006-2.565a.2.2 0 00-.04.005c-.025.044-.049.09-.073.136a1.33 1.33 0 01-.117.014c-.03-.155-.056-.306-.086-.458a.352.352 0 00.03-.15c.027.002.054.008.084.01.063.156.081.134.255.161-.024.025-.053.052-.079.08 0 .07.076.12.14.12.007.082.065.32.207.178 0-.072 0-.144.002-.213.133-.08.176-.238.244-.378.063-.06.132-.12.199-.178.052.015.052.015.124.041.006.115-.113.35-.07.42.039.004.075.004.117.01.085.175.057.197.242.205-.015.126-.213.237-.304.307-.04.214.092.272.063.47-.03-.01-.138-.225-.212-.147-.027.122-.116.19-.25.17.007-.306-.054-.316-.28-.549-.021-.052-.072-.216-.123-.229 0 .848 0 1.694.003 2.541.42-.02.836-.06 1.253-.12-.206-.157-.41-.32-.613-.48.25.015.386.116.602.24.06.006.244.015.283.054a.064.064 0 000 .07c.04.002.04.002.079-.009a.71.71 0 00.008.067c.272-.067.55-.13.82-.21a.419.419 0 00-.048-.067c.023-.039.047-.074.071-.108h.029c.292.156.62-.263.765-.477.09-.053.172.052.242.106a.48.48 0 00-.177.239c.275-.121.275-.121.524-.242a11.46 11.46 0 00-.106-1.41c-.008 0-.017 0-.025.002-.022-.08-.022-.067-.114-.073-.011-.018-.016-.038-.022-.055.078-.022.023-.248.022-.29a.184.184 0 01.055-.022c0-.077-.071-.623-.158-.733a4.742 4.742 0 00-.03.242l-.052-.067c.023-.056.044-.157.084-.196l-.146-.576h-.01c-.007.227-.154.354-.121.578-.085.138-.173.274-.256.411l-.238.15c-.03-.024-.04-.025-.076-.025-.03.052-.03.052-.065.135-.09.049-.255.1-.294.195-.01-.015-.018-.031-.029-.044-.09 0-.178.04-.263.065-.098-.065-.24-.191-.355-.21a4.488 4.488 0 01-.441.188l-.008.048c-.065-.006-.129-.01-.191-.014-.06-.129-.058-.198-.19-.207.028-.1.114-.29.066-.394l-.27-.12c-.025-.03-.1-.163-.13-.072.026.051.134.14.14.167-.172.16-.238.275-.337.49-.147.076-.097.078-.097.26h-.066c-.018-.188-.018-.188-.028-.203-.037-.005-.08 0-.108-.028.003-.012.003-.012.118-.116v-.022c-.062-.049-.193-.05-.272-.06-.02-.044-.037-.086-.056-.126l-.037-.007c.035-.008.31-.015.328-.024 0-.132-.175-.223-.292-.202-.405.221-.647-.268-1.018-.297-.061-.038-.118-.077-.181-.116-.024-.105-.024-.105-.024-.145.109.003.109.003.124-.009 0-.077-.038-.147-.05-.224.096-.101.17-.124.074-.234-.141-.088-.286-.176-.424-.269l.001-.121c-.03-.031-.06-.059-.089-.086.034-.188.102-.131.31-.16.157-.053.283-.188.448-.212.01-.017.01-.017.034-.34.24-.055.213-.016.271-.252.199-.015.256.045.29-.15.041-.02.09-.056.136-.056l.166.191c.084.353.081.268.463.382.08.066.164.137.246.207.134-.023.267-.044.4-.064l.357.107c.214 0 .516-.301.657-.456-.004-.047-.053-.12-.045-.148a1.85 1.85 0 01.157-.032c.034-.04.404-.415.404-.446-.162-.168-.12-.175-.331-.106-.01-.01-.01-.01-.029-.15.252-.072.075-.323.075-.495.03-.018.03-.018.14-.113h.244c.081.082.16.166.24.252h.284l.071.081h.04c.05-.08.098-.156.149-.23.014.026.014.026.124.42-.161.173-.145.14-.035.351-.083.033-.105.22-.11.302-.191.038-.12.217-.189.383-.133.168-.124.13-.05.33.413 1.337.788 2.721.814 4.134a6.12 6.12 0 01.24-.118c.006.002.006.002-.236.13v.087a8.758 8.758 0 002.765-2.209c0-.027 0-.051.004-.079-.187-1.958-1.085-3.927-2.474-5.321-.156-.12-.316-.24-.475-.358-.114-.264-.304-.395-.525-.594-.079.128 0 .44.157.478-.01.023-.017.045-.025.069-.064-.011-.14.064-.195.096l.007.099a7.203 7.203 0 00-.214.231c.001.273.004.545.007.817.033.025.081.004.12 0 .02.025.043.048.065.075h.076c.037-.05.063-.122.086-.178.02 0 .042.004.063.004-.003.035-.037.052-.015.088l.167.04c.071.138.144.277.219.418.02.319.102.687-.026.975-.132 0-.15-.035-.18.091-.11-.192-.12-.157.026-.315a1.624 1.624 0 00-.155-.564h-.044l-.168.258-.055-.059h-.277l-.248-.252c-.276 0-.272-.02-.485.157 0 .116.055.27.069.394-.11.096-.257.064-.388.1-.336.234-.377.13-.768.145-.078.047-.078.047-.099.053-.137-.147-.184-.16-.386-.205-.102.1-.089.2-.089.333-.167-.003-.317-.005-.482-.038-.118.018-.245.115-.356.163l-.08-.088c-.128 0-.143-.04-.235-.132-.102-.037-.18 0-.247-.092-.035 0-.046.006-.078.017-.032-.102-.098-.399-.166-.464-.031 0-.031 0-.232.04-.003-.088-.118-.088-.187-.113-.05-.148-.05-.148-.063-.166-.031-.01-.031-.01-.704-.024-.018.028-.014.074-.014.106-.072.009-.1-.003-.112.068a.148.148 0 00-.075.02c.003.046.01.093.016.142-.03-.002-.06-.003-.09-.007-.072-.167-.104-.135-.289-.15-.074-.097-.152-.192-.227-.29-.087.004-.216-.018-.29.021-.07-.07-.199.08-.258.122 0 .11.017.242-.017.348-.015-.006-.015-.006-.036-.036-.061 0-.192.127-.213.191-.006.131-.011.267-.014.4a.331.331 0 00-.056.005c-.193-.327-.369-.558-.398-.94h.058c.059-.074.04-.166.132-.224.368-.117.387.024.145-.462.015-.156.077-.242-.016-.366.008-.02.015-.041.025-.06.228.094.197-.283.206-.433.143-.044.283-.086.422-.125.122-.084.052-.306.043-.416.08.034.18.09.27.09.122-.13.24-.256.362-.381-.033.181-.031.186-.176.313 0 .07.012.152.044.214.012 0 .027 0 .043.004.024-.037.05-.074.078-.106.02.05.043.102.067.154.013 0 .025 0 .04.003l.072-.142c.046-.008.046-.008.126-.008.001.053-.009.11.058.11.034-.048.07-.098.108-.146.01.128.01.128.017.14.13-.005.403-.04.446-.036-.015.027-.024.057 0 .082.049 0 .09 0 .137-.015.43-.73.871-1.441 1.355-2.137.018-.01.059.01.067.026-.118.166-.233.331-.345.499-.139.211-1.084 1.58-.999 1.707.069-.011.117-.073.171-.12.066.079.066.079.207.275.058.008.08-.03.119-.067 0-.053-.02-.088-.043-.136 0-.143.119-.258.226-.332.015.01.038.018.056.027l-.15.573c-.013.013-.151.069-.209.1 0 .072.08.136.148.136.041-.048.21-.286.264-.286-.002.043-.002.092-.002.139.049.048.133.088.133-.011-.013-.007-.025-.015-.034-.018l.011-.144c-.05-.027-.103-.053-.154-.079a.493.493 0 01.08-.312c0 .138.01.128.136.192.028-.018.028-.018.037-.04a1.377 1.377 0 01-.054-.107c.057-.055.142.024.194.056-.026.075-.098.22.043.22.124-.124.029-.29-.028-.4a.033.033 0 01.01-.017c.202-.054.209-.015.236-.213.053-.029.108-.061.163-.093 0-.503.004-1.006.008-1.506h.06c.003.496.005.992.01 1.489.08-.005.175.027.175-.07.032-.014.047-.05.06-.086.006.008.006.008.06.008.033.102.117-.005.187-.005.184.106.033.24-.05.388.095.062.195.055.215-.091.017.022.035.046.056.07h.04c.104-.165.225-.024.36-.135 0-.042-.014-.067-.004-.109a32.32 32.32 0 00-.9-1.498c.007-.012.007-.012.059-.035.32.494.647 1.001.912 1.526.08.071.252.277.386.212.005-.05-.017-.096-.03-.144.108.009.148-.062.225-.133-.008-.075-.043-.1-.085-.163.023-.048.15-.107.196-.136l.05.039c.065-.008.065-.008.196-.04.036-.066.074-.134.113-.198.124.002.246.07.234-.084-.638-.446-1.331-.763-2.066-1.013a.306.306 0 01.023-.062c.739.25 1.417.567 2.07 1.003 0-.03.003-.059.008-.087.108-.02.108-.02.139-.033 0-.017 0-.03.002-.044l-.142-.092a.558.558 0 01.464-.408c.012-.017.012-.042.004-.063-.023-.006-.055-.006-.065-.027l.039-.06c.052 0 .15.097.191.13-.044.045-.07.1-.098.161-.031-.005-.078-.025-.103 0 0 .013.002.026.004.045l.15.1c.04.122.04.122.054.137.075.002.154.004.232.01.005.019-.003.023-.016.038 0 .14.197.376.272.499-.078.05-.078.05-.09.07.033.168-.01.556.279.504l.101.063c0 .018-.004.038-.006.059.187.162.207.258.283.495a9.499 9.499 0 012.502 4.72c.058.385.089.692.098.718.404-.577.701-1.135.892-1.803.042-.336.065-.68.065-1.029a7.93 7.93 0 00-1.863-5.111zM29.872 40.017c.032-.024.068-.01.108-.005.016-.017.016-.017.024-.039a.585.585 0 01.05-.002c.023.018.023.018.094.143-.046.098.016.212.002.316-.182-.166-.321-.258-.406-.49.021.006.021.006.128.077zm8.491-.63c.044-.06.142-.231.21-.252.05.05.075.048.15.054-.119.11-.12.142-.277.178-.076.107-.15.218-.227.328l-.347.167c.128-.19.293-.366.491-.476zm-2.283-.993c.008-.171.141-.37.304-.237.02.077 0 .173.03.24.121 0 .236-.091.356-.11.118.11.21.165.198.349-.286.027-.372.056-.32.375h-.017c-.124-.105-.25-.17-.31-.017-.145-.214-.145-.214-.165-.265.031-.177.03-.197-.076-.335zm.159.856c.002-.06.007-.097.042-.146.004.01.004.01-.042.146zm.021-.228c-.018.029-.018.029-.044.048-.058-.17-.058-.17-.061-.208.032.054.07.105.105.16zm-.055.498c0-.049 0-.049.03-.188.05.073.163.188.182.27a.746.746 0 01-.212-.082zm.25.126c-.005-.007-.006-.014-.008-.019.015-.002.015-.002.033.009-.008.004-.018.004-.025.01zm.377.403c-.23-.078-.247-.108-.356-.326.11-.095.22-.033.332.059.005.12.013.146.09.235-.007.026-.04.03-.067.032zm.77-2.075a.415.415 0 01-.092.169l-.054.003c-.094-.07.091-.148.146-.172zm-.186.574c.027.114.053.227.083.344-.113.107-.21.286-.37.274-.033.049-.033.049-.067.084-.002-.045-.002-.045-.013-.075-.038-.013-.159-.024-.162-.033.397-.307.397-.307.408-.325v-.248c-.06-.106-.06-.106-.065-.129.06.033.12.072.186.108zm-.181.054a1.725 1.725 0 00-.013.196c-.139.106-.276.209-.413.316a.237.237 0 00-.084-.07c-.072-.334.016-.315.345-.357.113-.066.113-.066.165-.085zm-.05-.727c0 .099-.167.231-.204.34-.181-.12-.094-.05-.094-.196-.084-.046-.246-.11-.246-.226.311-.141.238-.117.544.081zm-.78.047c.03-.003.062-.007.094-.013.013-.02.007-.048 0-.067.024-.005.05-.01.076-.012.073.122.11.144.233.217 0 .04-.027.068-.024.114.074.046.45.25.406.383-.053.025-.1.052-.15.08-.037-.238-.068-.246-.264-.415-.106.024-.207.068-.308.11-.004-.063-.006-.123-.013-.184a.476.476 0 01-.105-.106c.02-.037.034-.072.056-.107zm-1.194-.61c-.094.003-.188.01-.279.015-.048-.168.268-.02.279-.015zm3.997 1.388l.07-.09c.007 0 .011 0 .015.004a1.203 1.203 0 00-.085.086zm.378-.156c-.107-.018-.094.114-.095.184-.03.001-.056.003-.083.006 0-.048 0-.088-.034-.12.023-.026.023-.026.123-.221a.35.35 0 01.056.014c.016.042.058.097.033.137zm.025-5.13a.84.84 0 00.059.014c-.077.204.011.236-.202.343.005-.039.012-.077.02-.113-.022-.042-.1-.157-.088-.2.107.01.123.017.211-.044zm-.11.449c0 .015 0 .015-.01.019l-.015-.02h.024zm.099 1.03c0-.087 0-.087-.013-.209a.547.547 0 01.036-.001c.137-.244-.012-.46.005-.712.168.125.226.393.25.6-.066 0-.082.176-.098.23-.217.057-.067.07-.107.225-.006 0-.01.003-.014.004-.018-.019-.033-.043-.048-.064h-.04l-.236.24c.05-.17.123-.201.264-.314zm-.331.514c.039.007.039.007.089.033l-.007.145c-.004 0-.008 0-.01.003-.022-.077-.031-.101-.087-.156l.015-.025zm-.05 2.662c0 .007.003.01.005.018h-.022a.07.07 0 01-.015-.011c.02-.009.02-.009.031-.007zm-.116.294h.022a.133.133 0 00-.022.03v-.03zm-.301-3.38c.018.007.018.007.195.195-.024.136-.037.216-.158.298-.06-.204-.111-.293-.037-.492zm-.056-.66c-.004.073-.004.073.006.267-.093.198-.175.211-.006.335-.047.161-.039.158-.192.202 0-.097.02-.202-.097-.195.022-.103.04-.206.06-.306.037-.007.072-.01.107-.014.029-.094.029-.19.065-.284l.057-.006zm-3.797.122l.231-.12c.182.012.36.028.547.028.065-.087.01-.216.072-.32.07.008.07.008.19.04.15.158.125.216.305.088.127.01.395.081.51.042.188-.135.248-.181.475-.208.044.287.007.217.256.166l.079.083c-.012.038-.07.07-.102.094-.085.096-.166.196-.248.295-.07.01-.142.014-.204.045 0 .056.03.1.057.148 0 .136-.472.417-.575.435-.26-.154-.47-.095-.74-.046a12.16 12.16 0 00-.268-.211c-.306-.09-.306-.09-.346-.108-.04-.183-.081-.313-.239-.435v-.016zm-1.53-4.566l-.039.005c.005-.009.005-.009.039-.005zM31.817 29c.054-.035.101-.089.159-.106-.002.095.015.04.04.09-.036.039-.052.039-.046.098.027.008.027.008.061.002-.019.056-.119.103-.173.128a1.016 1.016 0 01-.049-.026l.008-.186zm.27 1.381v.01c-.052.013-.104.03-.155.044-.028-.018-.054-.038-.08-.056.08 0 .158 0 .235.003zm-1.048.063c.07-.007.235.013.235-.078l-.037-.024c0-.007.008-.011.012-.014l.025.005c.017.043.017.043.036.069.009 0 .018.001.03.007a.095.095 0 01.024-.021 5.008 5.008 0 01-.022-.106c.007 0 .015.004.022.006l.01.024c.105.003.14-.006.213.067-.147.175-.136.203-.353.227-.006-.013-.009-.022-.014-.029-.05 0-.07 0-.12.019-.031-.019-.061-.042-.095-.058.001-.034.017-.06.034-.094zm-.101-.561c-.004.007-.008.014-.009.022-.013-.003-.02-.01-.028-.01.01-.006.023-.009.037-.012zm-.268.94c.062-.048.134-.131.217-.096v.016a.332.332 0 01-.217.08zm.096.682c.028 0 .055.002.082.005 0 .107.131-.01.18-.019.03.08.061.157.094.237-.065.114-.176.008-.233-.037-.089.046-.178.188-.238.27-.04.015-.04.015-.257.047a.851.851 0 01.004-.598c.06-.05.122-.099.182-.145.165.043.12.132.186.24zm.076-1.593c-.014.04-.022.076-.03.113-.119.008-.11.011-.208.06-.002-.023-.002-.044-.002-.063.091-.037.147-.087.24-.11zm-.51 1.471c-.03.242-.093.412-.01.635a.236.236 0 00-.047.008c-.12-.242-.06-.255-.102-.516.043-.11.07-.21.093-.325.097-.016.236-.125.302-.125.004.003.01.007.017.015-.023.162-.13.212-.252.308zm-.612.299c-.235 0-.307.576-.329.75a.232.232 0 00-.05.006c-.03.043-.067.11-.116.12.153-.209.163-.425.214-.682.051-.081.202-.289.111-.38.078-.098.159-.19.238-.286.029-.003.058-.004.088-.008 0 .1.02.16-.05.228l.046.298a.494.494 0 00-.084.046c0 .034 0 .068.004.106.013.01.025.02.04.03-.009.086-.049.05-.088.108-.032.107-.084.213-.095.325.016.013.037.022.058.034 0 .251-.096.112.03.363h-.017c-.071-.054-.098-.076-.182-.09.09-.151.09-.3.111-.478.063-.186.176-.316.071-.49zm-.35 1.4h-.013c-.011.05-.033.069-.06.113 0-.052.006-.07.027-.123.046.002.046.002.046.01zm-.23-1.924c.035-.055.148-.198.217-.31h.046c-.046.123-.054.21-.066.343-.031.018-.062.036-.09.056-.035-.04-.057-.073-.106-.09zm.777.76c.002.079.03.172.03.235-.047.046-.137.164-.198.176a.105.105 0 00-.024-.015c0-.079.053-.18.077-.257.068-.01.086-.078.115-.138zm-.202.663c.045-.13.154-.34.288-.386-.034.123-.123.304-.123.424.007.005.016.014.022.02-.04.042-.04.042-.1.086-.028-.05-.058-.096-.087-.144zm.214.064c.065.099.129.198.196.297-.02.043-.135.042-.183.088-.091-.077-.143-.107-.143-.234.032-.043.081-.134.13-.151zm.039-.061c0-.144.164-.34.064-.452-.011-.057-.011-.057-.018-.249.062-.015.062-.015.114-.012.09.182.16.355.287.517.09.181.044.227-.024.422-.069.036-.137.07-.204.108l-.219-.334zm.241-1.449a.999.999 0 00-.06.582c-.01.025-.01.025-.048.078a3.257 3.257 0 01-.16.015c-.008.012-.02.079-.027.079v-.014l-.055-.028v-.04c.028-.013.054-.028.079-.036-.005-.09-.005-.09-.042-.317.067-.082.05-.14.052-.247.118-.071.121-.082.161-.213.095-.063.196-.152.321-.136-.015.033-.017.042-.004.079.057 0 .102-.032.153-.06-.102.182-.17.207-.37.258zm.12-.335a.228.228 0 01.046-.027l.006.021a1.074 1.074 0 00-.053.005zm-.212-.535c.047.036.066.06.122.053.014-.055.024-.107.036-.159.072.014.144.028.218.04-.104.105-.179.156-.218.297-.04.01-.079.018-.116.03-.042-.226-.042-.226-.042-.26zm-.624.538l.172-.075c.061-.071.129-.25.195-.285 0 .035.002.069.004.104.032.03.055.008.085-.014.023.16 0 .114.196.174.023.03.049.061.071.095.012 0 .078-.018.078.008-.257.054-.201.24-.352.322l-.177.007c-.09.107-.184.212-.274.319l-.066-.044c.016-.236-.034-.373.068-.61zm-.27-.36c.002.022.002.022-.006.062a3.21 3.21 0 00-.216.079c.066-.074.13-.1.222-.14zm-.305.239c.116-.041.232-.082.35-.121.023-.07.04-.231.15-.231-.033.254-.137.754-.431.844-.015.025-.03.054-.062.06-.033-.012-.062-.027-.09-.038a2.612 2.612 0 01-.032-.185c.022-.117.102-.209.115-.33zm-.183 6.162c-.037 0-.064 0-.089.026.052.417.052.417.05.44a3.362 3.362 0 01-.435-.725l-.163-.564c-.004-.22-.005-.432-.008-.647.04-.03.08-.056.12-.082.027.03.032.039.076.043.047-.119.092-.234.14-.35.03.026.04.032.075.038.035-.043.068-.087.102-.128.401.573.401.573.478.673l.113.011c0 .1.026.194.032.291-.01.052-.032.4-.089.432l-.195.347c-.06 0-.12 0-.18.003-.038.037-.024.138-.027.192zm-1.162-3.214h-.031c-.05.09-.095.182-.143.277-.005 0-.008.003-.014.006-.029-.11-.058-.217-.083-.326.17-.168.206-.196.26-.43.041.216.043.225.193.056.29.22.39.282.424.65l-.254.49c-.12.039-.12.039-.158.042a9.343 9.343 0 01-.152-.213c-.05-.173.064-.411-.041-.552zm-.047.167c.011.337.003.378.184.635-.016.156-.028.309-.157.409-.014-.067-.014-.067-.03-.09-.01-.005-.02-.005-.03-.005-.03-.351-.125-.64.033-.949zm.18 1.127c.022-.16.077-.312.105-.47.05-.013.098-.023.15-.034.085-.166.172-.332.259-.495.006.015.01.032.014.05-.14.028.113.848.139.955-.036.1-.07.205-.107.306-.247-.133-.242.237-.245.349h-.03c-.113-.026-.205-.163-.284-.242v-.42h-.001zm.767-.03c-.156-.107-.226-.642-.261-.85.143-.022-.066-.544-.05-.629.008-.005.016-.01.025-.013.008-.055.021-.346.03-.367.12-.14.218-.303.389-.378.012.08.012.08.04.886a.42.42 0 00.096.064c.041-.02.07-.077.099-.111.108 0 .164.369.164.468-.516.918-.516.918-.532.93zm.027-2.265c.067-.129.132-.254.2-.378.091 0 .107 0 .174-.062.075.077-.046.167-.09.218-.17 0-.135.012-.17.177-.037.016-.074.028-.114.045zm.042-1.683c.045.082.064.09.154.072-.02.114-.027.388-.135.453-.017-.084-.019-.076-.104-.09-.033-.076-.13-.249-.113-.33.053-.028.134-.105.198-.105zm-.051.514c.005.067-.01.12.061.12l.14-.142c.105.19.12.437.164.653-.053.06-.146.056-.201.096-.159.306-.28.544-.499.803-.04.12-.048.259-.066.383-.004.004-.01.005-.01.008l-.248-.194c0-.63.255-1.291.45-1.88.02-.014.036-.028.059-.028.041.098.037.181.15.181zm-.186-.278c-.016.01-.032.023-.047.037.005-.036.013-.07.021-.106h.01c.004.023.01.045.016.069zm-.19-.218a4.68 4.68 0 01.164-.052c.005.056.014.096-.014.147-.073 0-.141.095-.194.142.015-.08.029-.16.045-.237zm-.096.123l-.036.22c.094.087.136-.113.212-.113-.008.052-.025.098-.02.148.006.003.012.01.022.015-.035.097-.066.192-.097.287-.03-.015-.07-.046-.105-.025l-.302.621c-.043-.215-.043-.215-.05-.305.107-.307.223-.564.376-.848zm-.424 1.014c.018.093-.006.282.115.266.297-.628.297-.628.331-.68a.07.07 0 00.022.023c-.148.463-.225.911-.308 1.394-.092.115-.092.115-.11.123-.045-.227-.045-.227-.063-.267h-.043c-.055.25-.053.366-.24.533.06-.458.126-.962.296-1.392zm-.324 2.937c-.025-.426-.028-.856.001-1.286.082.309.181.669.144.99-.106.195-.106.195-.145.296zm.11.825c-.026-.185-.062-.37-.075-.558.172.09.172.193.233.378-.045.05-.122.117-.14.18h-.017zm.048.084c.018-.09.12-.174.177-.243-.015-.125-.076-.252-.117-.37-.29-.156-.194-.164-.09-.43 0 .082-.026.249.021.313h.03c.043-.056.021-.322.021-.396h.016a.194.194 0 00.029.106c.05 0 .089-.035.126-.07-.002.172-.005.34-.005.513.131.125.209.262.391.283 0 .125 0 .247.003.372.12.414.12.414.114.422a2.005 2.005 0 01-.319-.557c-.153-.026-.18.151-.211.262H27.6c-.06-.072-.116-.14-.172-.205zm1.819 3.474a.023.023 0 00-.011.007c-.085-.046-.179-.114-.271-.128-.15-.19-.3-.39-.43-.598a39.422 39.422 0 00-1.041-2.564c.038.029.115.117.13.128.103-.052.02-.29.16-.303.107.273.225.425.418.652.175.386.225.363.102.735.011.204-.008.181.196.22l-.005.09c-.045-.018-.123-.08-.168-.052.045.459.387.935.706 1.237.08.19.15.379.214.576zm-.178-.878c-.089.044-.058.081-.107.148-.192-.18-.601-.755-.543-.99.043.02.071.044.12.044.034-.04.024-.16.024-.218-.011-.011-.011-.011-.185-.05-.006-.148.033-.236.084-.378.119.162.2.258.235.452-.335.244.298.722.372.992zm-.297-1.21c-.054-.371-.054-.371-.05-.417.12-.027.08-.076.084-.201.276 0 .224-.096.377-.36.006 0 .013-.004.02-.004.005.026.005.026.02.423.087.184.21.348.189.554-.06.024.145.326.18.38.083.1.168.2.252.305a3.24 3.24 0 00-.257.046c-.392-.167-.512-.38-.815-.726zm1.02 1.092c-.124.015-.246.029-.369.04-.036-.145-.07-.295-.105-.44.094 0 .19.083.29.093.452-.064.368-.043.084-.399.116.05.361.168.54.242-.024.218-.274.331-.44.464zm.601-.86c-.304-.05-.54-.15-.826-.276.002-.155.006-.309.013-.463.214.035.292.098.346.316.082.053.21-.09.305-.09l.304.146c.016.098.036.208.028.31-.059.023-.106.047-.17.056zm.714-.872c-.002.017-.123.17-.134.177a2.845 2.845 0 00-.088-.075c0-.026.195-.091.222-.102zm-.55-1.655c0 .227.027.454.023.68a.317.317 0 00-.042-.014c-.024.014-.027.017-.032.048h-.013l-.199-.212c-.079-.21-.29-.536-.247-.765.278-.02.244.017.39-.206.099-.007.129.01.214.062.023.223.037.241-.093.407zm-.779-.122c-.05.008-.1.02-.149.031-.08-.177-.029-.31.135-.417.002.046.006.091.012.14.048.017.1.036.15.052a.48.48 0 01.01.102c-.093-.032-.093-.032-.188-.054-.004.01-.013.016-.016.03.013.04.03.076.046.116zm.063-.289a2.33 2.33 0 01-.003-.096l.133.001c.09-.14-.084-.295.19-.29.091.084.18.166.275.248-.006.011-.006.011-.052.031-.17.292-.176.058-.392.201-.013-.07-.089-.075-.151-.095zm.046-.168a.532.532 0 01.026-.035c.003.014.005.03.006.046h-.028c-.004-.005-.004-.008-.004-.01zm.81.118c-.23-.13-.4-.393-.66-.403-.079-.045-.16-.085-.238-.128-.075-.167.01-.174-.174-.233-.02-.046-.037-.094-.056-.14a.37.37 0 01.036-.01c0-.043 0-.048-.025-.083h-.02c-.03.05-.449.595-.402.744.063.039.132.067.152.084.037.07.154.29.24.272 0 .013 0 .013-.043.152.058.128.058.128.09.183.083 0 .181-.033.261-.055 0-.035-.008-.058-.02-.095.047.015.092.031.14.05.12.308.204.7.494.896.031.258.052.53.062.788.11.09.706.436.32.602-.233-.04-.413-.125-.63-.222-.084.016-.163.064-.241.097-.062-.236-.208-.276-.421-.318a76.886 76.886 0 01-.116-.59c.007-.096.038-.297.045-.409-.06-.619-.06-.619-.064-.727.038-.052.061-.074.067-.14-.044-.024-.084.024-.118.046.01-.17.01-.17.008-.282h-.047c-.06.277-.091.573-.132.858-.033-.004-.063-.009-.095-.012-.486-.686-.486-.686-.495-.71.138-.254.284-.506.425-.76.055.14.055.14.066.152.217-.361.442-.717.68-1.06-.02-.06-.04-.135-.085-.18-.03.006-.06.015-.09.02 0-.033.014-.073-.005-.1h-.047c-.025.046-.05.09-.072.137-.074-.008-.07.013-.076.08l-.027-.009c.014-.021.008-.067 0-.093.048-.14.042-.21.182-.26.134.077.154.099.193.249l.144.12c-.006.039-.011.078-.02.116-.014-.023-.022-.027-.043-.033-.072.104-.072.104-.08.131.058.05.125.127.208.103.037.088.134.085.217.103.22.205.145.56.523.543.023-.034.023-.034.03-.034.028.042.054.088.085.131l-.024.015c.013.208.011.245-.102.414zm-.221-1.457h.067v.141h-.022c-.015-.004-.026-.01-.04-.015-.002-.04-.005-.086-.005-.126zm.226.268c.014.069.03.136.035.208a6.936 6.936 0 01-.035-.208zm1.24 2.882c-.04-.041-.08-.086-.12-.126.036-.115.085-.336.254-.336.154.073.252.081.377-.06l.425.134c.052-.028.105-.056.16-.082.016.13.016.13.029.158.029.005.029.005.308.011-.078.076-.3.013-.371.111 0 .082-.002.118-.047.183h-.13c-.031.066-.062.133-.095.2-.229.008-.229.008-.321.015a5.806 5.806 0 01-.083.14.094.094 0 00-.03.007c-.162-.055-.323-.11-.482-.162 0-.068.126-.105.126-.193zm.323.91c-.161-.057-.321-.113-.48-.167 0-.131.216.035.216-.114-.059-.158-.059-.158-.145-.348.145.045.35.141.499.141l.085-.147c.33-.064.295.079.424-.209l.12-.008c.063-.087.088-.114.091-.219.306-.064.238-.088.142.2-.002.027-.006.05-.006.074.02.027.155.168.144.192-.027-.02-.064-.077-.102-.04.003.046.03.122.01.16l-.321.255c-.079.014-.141-.051-.226-.051-.18.204-.027.256.038.515h-.014c-.074-.038-.158-.095-.241-.108l-.093.09c-.05-.015-.112-.167-.14-.217zm1.604 2.509c-.037.005-.07.008-.102.016l-.043-.036c.008-.178.008-.178.017-.242l.145.154a.952.952 0 00-.017.108zm.663-2.434c.061 0 .12.007.183.01-.009.049-.045.085-.074.12-.279-.116-.518-.177-.749-.366.168-.23.493.127.64.236zm-.909-1.225c.09.056.193.111.272.184 0 .049-.089.123-.12.16a.688.688 0 01.04.171h-.102c-.041.056.004.205.037.261.135.082.135.082.144.093-.033.046-.083.083-.083.142.26.199.49.279.8.398.094-.01.123-.08.175-.16.04-.007.04-.007.076 0a1.078 1.078 0 00-.004.099c-.174.04-.014.631-.004.695-.023-.008-.035-.043-.045-.068h-.035c-.232.252-.465.408-.753.595-.265.077-.265.077-.276.089-.09.545-.09.545-.102.582l-.255.155c-.227-.192-.316-.59-.423-.872-.029-.16-.055-.319-.083-.478.034-.166.148-.318-.052-.369-.045.036-.054.081-.075.137a5.41 5.41 0 00-.146-.01c-.027-.047-.053-.09-.077-.137.054 0 .13-.058.13-.113-.036-.035-.129-.03-.176-.035-.021-.034-.046-.06-.046-.1.152-.139.255.067.377-.014 0-.147-.106-.275-.123-.42.095-.094.137.013.255.013.128-.105.26-.21.391-.313 0-.038 0-.071-.01-.11.068-.003.068-.003.1-.013 0-.087-.096-.168-.151-.232.022-.077.044-.154.065-.233.242-.046.242-.046.267-.058.004-.012.006-.029.012-.039zm-.114-.008c-.018.01-.018.01-.138.028.031-.021.06-.07.099-.07l.04.042zm-.084-.135l-.304.006c-.01-.06-.015-.12-.023-.178-.14 0-.162.117-.321.066.084-.163.09-.152.045-.329.163-.071.171.01.312.131.07.007.142.016.215.025-.002.032-.002.062-.002.096.076.069.093.078.078.183zm.296-.445c-.33.053-.33.053-.346.063a.183.183 0 00-.01.038h-.04c-.15-.014-.323-.086-.371-.246.053 0 .163.131.2.168.05-.002.156 0 .197-.026 0-.085-.098-.178-.14-.242 0-.012.004-.021.006-.032.217-.095.142.046.273.021.182-.126.335.03.53.086 0 .005.004.01.005.012l-.304.158zm-.688-.18c.002-.01.005-.013.007-.021.032-.013.07-.025.103-.038.036.056.102.126.116.191-.027.004-.054.004-.081.007-.049-.047-.098-.093-.145-.14zm-.847-1.4l.071-.223c.204.011.207-.022.281.148a.365.365 0 00.206-.004c-.006-.05-.009-.099-.014-.15.02-.002.04-.007.06-.011l.026-.05c.1-.008.088-.018.095-.114.2.003.4.01.604.016.016.055.037.108.056.164l.17.054c.004.028.01.052.031.074.205-.04.205-.04.231-.037.05.151.102.3.15.45.032.032.069.006.11.006.042.058.156.053.224.06.097.094.127.148.261.155l.043.053c-.024.075-.089.035-.107.174l-.259.02c-.018.038-.018.038-.056.207-.31.067-.23.033-.256.376h-.015c-.122-.04-.423-.199-.538-.175-.092.074-.086.063-.166-.015-.142 0-.268.126-.413.143a.404.404 0 00-.11-.069c-.029-.131-.055-.26-.083-.392-.091-.025-.267-.037-.29-.136.123-.172.118-.143.05-.351-.08 0-.154.032-.23.054-.078-.022-.156-.046-.234-.065-.058-.192-.022-.254.102-.362zm-.101.443c.056 0 .115.016.172.03-.087.28-.077.212.195.317l.019.044c.089.023.176.048.261.072.025.127.052.252.078.379.021.019.09.05.132.08-.1.01-.051.041-.051.125-.18.083-.153.073-.093.251-.027.046-.054.091-.08.14-.012 0-.024.006-.037.01-.013-.007-.025-.01-.037-.015-.008-.27-.125-.353-.285-.574-.032-.14-.026-.196-.14-.276 0-.103.064-.109-.081-.206-.07-.002-.14-.002-.204-.002.049-.126.1-.251.151-.375zm-.31.614c.04-.064.04-.064.083-.16l.26-.013c.081.082.017.059.017.154.038.03.079.059.119.086.055.29.31.446.32.72-.171-.047-.199.046-.369.096a1.295 1.295 0 00-.1-.054c-.06-.342-.274-.563-.47-.848.029-.002.095.02.14.019zm-.638-.528c.28.025.176-.217.184-.454.034-.04.073-.077.11-.113.033.014.03.05.068.057.027.306.027.306.027.394-.068.104-.161.186-.13.313h-.015c-.036-.012-.036-.012-.386-.076v-.19c.056.014.115.014.142.069zm-.077-.13c-.01.004-.087-.029-.116-.029-.044.062-.021.183-.021.258-.065-.063-.045-.185-.053-.275.174-.018-.134-.206-.08-.315-.001-.041-.004-.078-.006-.118.09.16.181.32.276.479zm.151-1.208c-.128.043-.253.083-.378.128-.084-.04-.149-.052-.21-.072-.028-.098-.142-.095-.058-.205-.027-.04-.06-.053-.1-.076 0-.08.06-.181.088-.26 0-.177-.205-.287-.224-.437.048-.011.077-.011.088-.061l.27-.033c.188.293.188.293.22.335.256.035.171.107.145.346.118.24.118.24.16.335zm-.006-.822c-.122-.039-.123-.039-.165.09h-.035c-.131-.03-.21-.24-.28-.35.05-.069.107-.134.17-.198.203.165.2-.063.377.026-.024.035-.05.347-.067.432zm.058-.504a.654.654 0 00-.08-.015c-.026-.064-.102-.207-.092-.272a.768.768 0 01.04-.026l.012.096c.06-.057.06-.057.094-.081.03.055.128.179.128.24a.284.284 0 01-.102.058zm.45-.495c.016.178.082.271-.007.437-.118.034-.236.067-.354.104.013-.045.077-.058.1-.103-.042-.073-.157-.223-.157-.306.097-.072.178-.139.223-.246.199-.12.39-.257.58-.394-.002-.005-.005-.007-.005-.007a.166.166 0 00-.046.002c-.23.123-.509-.04-.752.132 0 .049.015.058.06.077-.007.018-.016.036-.024.053-.061 0-.106 0-.158-.035-.203 0-.205.232-.384.07.126-.113.258-.226.385-.337l.265-.033c.064-.073.127-.142.19-.215.07 0 .068.034.078-.055l.2.123c.222 0 .267-.134.486-.037.009.03.009.03.005.08-.149.11-.298.223-.446.336-.052.087-.154.304-.24.354zm.901.076c-.039-.107-.081-.212-.12-.316a.426.426 0 00-.033-.013c.053-.07.14-.2.223-.22.062.064.074.386.08.5-.05.043-.08.043-.15.05zm.311.051c.016-.02.03-.045.045-.064.018.015.018.015.027.034-.011.013-.011.013-.072.03zm.855-1.454c-.014 0-.025-.003-.037-.006v-.016c.018.006.037.01.055.014-.006.002-.015.005-.018.008zm.933-.585c-.749.303-1.46.739-2.143 1.171-.004.008-.004.016-.004.026.066.038.062.057.15.074a.136.136 0 00-.01.033c-.19.182-.49.634-.687.7-.014-.014-.014-.014-.211-.083 0-.016 0-.016.158-.268.151 0 .176-.032.215-.189.094-.074.19-.145.287-.216-.003-.036-.003-.07-.003-.103.552-.311 1.088-.648 1.648-.946.077-.034.528-.285.59-.266.006.025.021.043.01.067zm3.252-1.844c-.01.004-.018.01-.028.013-.004.068-.004.068.005.112l-.032.007c-.003-.063-.007-.123-.008-.188.01-.002.01-.002.063.056zm-.073.306c-.031 0-.04.01-.06.037-.053-.04-.003-.06.037-.096.012.008.012.008.023.06zm-4.676-.951c-.078.032-.168.084-.252.1.233-.1.233-.1.252-.1zm-.919.458c-.01-.012-.01-.012-.039-.021a.38.38 0 01.046-.017.234.234 0 00-.007.038zm2.38.466c-.083 0-.147.058-.224.058-.059-.08-.274-.055-.37-.061 0-.153-.398-.089-.489-.089v-.061c.1-.003.198-.009.297-.012.01-.016.01-.016.01-.048-.01-.011-.01-.011-.323-.101 0-.014.001-.024.005-.033.196-.027.318-.038.51.017l.003.027c.012.008.02.015.037.021 0 .04-.037.053-.037.098.169.096.332.17.523.1.15.01.15.01.168.019.005.053.008.106.014.16-.023.007-.043.015-.064.02l-.06-.115zm.21-.343c-.057.047-.122.084-.151.15-.04-.02-.059-.066-.093-.099a.438.438 0 01.243-.051zm-.23-.127c.048-.008.098-.015.148-.018-.01.018-.014.043-.037.05a1.709 1.709 0 01-.112-.032zm.23.726v.007c-.075.01-.075.01-.12.024-.012-.015-.012-.015-.013-.03h.132zm-.038.155c-.011.012-.02.027-.03.04-.01-.039-.04-.039-.07-.06.064 0 .253-.026.1.02zm.088-.332c0-.051-.054-.103-.087-.138.065-.002.065-.002.132.007.023.033.011.07.001.11l-.046.02zm.424.484a.026.026 0 00-.014-.011c.008 0 .016.001.025.004-.005.001-.01.005-.01.007zm.066.618c-.015-.012-.015-.012-.057-.02 0-.11.784-.661.885-.741-.106-.006-.128-.01-.194-.09.082-.016.293-.043.344-.018.176-.12.176-.12.2-.143a19.603 19.603 0 00-.306-.185c.076-.102-.18-.102-.247-.146-.089-.148-.09-.093-.25-.01-.135-.097-.231-.116-.405-.127l-.01.01c-.082-.07-.11-.025-.187.04 0 .076.037.087.09.138 0 .032-.026.05-.046.074l-.041-.038c-.003.396-.01.797-.01 1.198h-.069c0-.144-.004-.282-.005-.425-.016.017-.022.018-.042.024l-.098-.106c.002-.015.002-.015.027-.028.005.012.013.024.02.037l.093.016c.009-.117.009-.117.009-.87-.03-.016-.048-.04-.076-.05-.018.018-.037.037-.063.037a1.364 1.364 0 01-.08-.112c.051-.004.1-.007.148-.013.011-.016.011-.016.011-.047-.01-.01-.01-.01-.134-.044.066-.005.133-.011.2-.011 0-.143.003-.28.003-.42-.645-.035-.645-.035-.69-.046-.135-.1-.135-.1-.164-.111-.142.038-.428.08-.159.166-.05.024-.098.05-.145.076 0 .08.106.077.17.096v.013c-.087.035.055.093.074.098 0 .016.002.031.004.047-.14.007-.277.014-.415.023a.3.3 0 01.002-.046c-.02-.022-.06-.016-.088-.022v-.03c-.034-.035-.081 0-.117.012-.095-.095-.242.063-.264.162l-.223-.019c-.018-.018-.01-.04-.024-.058-.103 0-.22.038-.319.058a.562.562 0 01.047-.035v-.038a.126.126 0 00-.027-.018c-.278.097-.278.097-.293.094.214-.241.576-.257.825-.44v-.031a.217.217 0 00-.032-.025c1.002-.401 2.164-.08 3.164.082.459.193.918.39 1.375.585 0 .171-.002.196-.12.314 0 .078.114.085.126.18.014.003.032.01.05.017.011.072.025.147.039.22-.154.047-.603.238-.747.213-.162-.328-.154-.287-.508-.34a.69.69 0 01-.007-.086c-.435.302-.843.616-1.244.959zm-.035-1.126c.013.003.033.005.05.01l.017.035a.227.227 0 00-.054.01c-.005-.02-.01-.037-.013-.055zm.715.068c-.014.008-.023.016-.036.026v.032l.036.03c-.023.012-.023.012-.062.015-.028-.068-.135-.058-.199-.066-.008-.041-.008-.078-.033-.11-.041 0-.065.031-.098.056-.016-.112-.01-.119-.093-.176 0-.007 0-.014.003-.02.02-.01.037-.018.059-.026.156.09.295.055.459.101.01.02.017.042.03.064-.048-.013-.133-.05-.173-.019a.397.397 0 00-.003.041c.034.018.073.035.11.052zm-.267.324c-.013 0-.024.003-.033.003-.01-.011-.018-.022-.027-.03l.054.012c.001.006.004.01.006.015zm-.2-.104c-.004.015-.004.028-.004.04h-.014l-.014-.02c.007-.014.018-.026.032-.02zm-.597-.089c.01-.002.024-.004.038-.004 0 .007 0 .013.003.022-.005 0-.011.005-.011.005-.012-.007-.022-.017-.03-.023zm3.31-.873a7.834 7.834 0 00-3.14-.733 4.336 4.336 0 00-.008.17c1.01.056 1.917.237 2.86.62.093-.02.19-.039.287-.057zm-5.811 1.587l.033-.107c.048-.02.129-.036.088-.102-.029-.006-.055-.006-.08-.008l-.062-.11c.02-.032.062-.032.089-.061-.002-.013-.002-.023-.002-.034-.016-.011-.028-.022-.042-.03a.26.26 0 00.03-.113l-.151-.065c0-.114-.17-.07-.17-.117.258-.122.755-.227.997-.02a.342.342 0 00-.028.134c.02.007.13 0 .138.007-.012.018-.003.032 0 .05.076.028.196.04.256-.018.01.003.01.003.061.069.264.088.264.088.278.084-.75-.5-1.715-1.027-2.653-.949a8.038 8.038 0 00-2.176 1.713l.192-.083c1.028-.331 2.136-.285 3.202-.24zm-.518-1.341a.284.284 0 00-.026.012c.016-.014.016-.014.026-.012z" fill="#fff"/></svg>